<?xml version="1.0" encoding="UTF-8"?>
<svg version="1.1" xmlns="http://www.w3.org/2000/svg" width="1197" height="1214">
<path d="M0 0 C3.5625 1.75 3.5625 1.75 6 4 C6.7425 4.61875 7.485 5.2375 8.25 5.875 C12.42915459 10.94968772 12.48170185 16.72555791 12 23 C11.31663332 26.40810268 10.31707917 29.6880226 9.28125 33.00390625 C8.68073313 35.00999005 8.08057202 37.01618036 7.48071289 39.02246094 C7.15894073 40.08299683 6.83716858 41.14353271 6.50564575 42.23620605 C0.0983073 63.42924651 -5.62979512 84.75991064 -10.9375 106.25 C-11.26980655 107.59340649 -11.60212267 108.93681062 -11.93444824 110.2802124 C-13.61853022 117.09285818 -15.29430565 123.90752544 -16.96630859 130.72314453 C-57.3380734 295.26192865 -57.3380734 295.26192865 -100 385 C-100.47002441 385.94262695 -100.94004883 386.88525391 -101.42431641 387.85644531 C-113.16145651 411.25745427 -127.15837925 433.46477057 -142 455 C-142.48162598 455.69899414 -142.96325195 456.39798828 -143.45947266 457.11816406 C-152.79742438 470.58736762 -162.77732034 483.62136585 -173.47265625 496.0390625 C-175.77232728 498.73326751 -177.98466362 501.47667481 -180.1875 504.25 C-189.98558669 516.24271986 -201.08124839 527.16589397 -212 538.125 C-212.87172852 539.00140137 -213.74345703 539.87780273 -214.64160156 540.78076172 C-219.60146577 545.72825956 -224.67941668 550.44528998 -230 555 C-231.15672154 556.02143247 -232.31171092 557.04483033 -233.46484375 558.0703125 C-242.64579108 566.17277109 -252.16597617 573.70774704 -262 581 C-263.08087891 581.804375 -263.08087891 581.804375 -264.18359375 582.625 C-345.51909667 642.9379576 -437.07825537 668.76767933 -592.86423779 689.16357136 C-613.87332863 691.73299392 -634.84037808 694.46835413 -655.765625 697.65625 C-656.7060754 697.79902437 -657.6465258 697.94179874 -658.6154747 698.08889961 C-706.18368874 705.3418201 -751.71794979 716.64271891 -796.71875 733.79296875 C-804.205275 736.54694045 -813.36699319 737.79493312 -821 734.8125 C-828.14782076 730.49402495 -831.48228994 724.70900207 -833.58984375 716.78125 C-838.04335193 686.5822231 -826.07233911 655.60962476 -813 629 C-812.29447998 627.56019775 -812.29447998 627.56019775 -811.57470703 626.09130859 C-801.04096262 604.80216442 -789.03905618 584.44129637 -774.35693359 565.73779297 C-773.03783631 564.04845608 -771.74373212 562.3430025 -770.45703125 560.62890625 C-764.30435519 552.45696521 -757.7569056 544.67558753 -751 537 C-749.81277344 535.64261719 -749.81277344 535.64261719 -748.6015625 534.2578125 C-742.62331803 527.58307352 -736.33592024 521.20850837 -730.02529907 514.85006714 C-729.02569029 513.84241845 -728.02756645 512.83329399 -727.03109741 511.82254028 C-720.37135342 505.07752861 -713.41331607 498.91853911 -706 493 C-704.89828422 492.06508802 -703.80193811 491.1237489 -702.71484375 490.171875 C-676.04065352 466.91168099 -645.00194468 449.6959298 -613.4375 434.0625 C-611.30606319 433.00213151 -609.17463424 431.94174723 -607.04321289 430.88134766 C-589.76739858 422.30545015 -572.39988354 413.9767335 -554.7250824 406.24954224 C-551.83055428 404.98229156 -548.94057784 403.704821 -546.05056763 402.42730713 C-543.99124129 401.52358404 -541.9247512 400.63807201 -539.85717773 399.75341797 C-538.60104952 399.20099096 -537.34525375 398.64780723 -536.08984375 398.09375 C-534.43263306 397.37735352 -534.43263306 397.37735352 -532.74194336 396.64648438 C-529.66585932 394.79935493 -528.54935442 393.19265006 -527 390 C-527.66 389.01 -528.32 388.02 -529 387 C-535.60681905 387.45876356 -541.59740883 388.50159194 -547.8984375 390.51953125 C-548.71845245 390.77385422 -549.53846741 391.02817719 -550.3833313 391.29020691 C-553.0505247 392.12081779 -555.71284434 392.96589404 -558.375 393.8125 C-560.25314485 394.40334571 -562.13140176 394.99383531 -564.00976562 395.58398438 C-569.67909867 397.37096599 -575.34041845 399.18240705 -581 401 C-582.24747009 401.3994986 -582.24747009 401.3994986 -583.5201416 401.80706787 C-615.451648 412.04044703 -646.81614086 423.31121665 -677 438 C-677.78487793 438.37995117 -678.56975586 438.75990234 -679.37841797 439.15136719 C-683.32956043 441.07163127 -687.2543735 443.03664586 -691.15771484 445.05224609 C-693.04321762 446.02223307 -694.93733388 446.9738998 -696.83203125 447.92578125 C-716.92444191 458.15388509 -736.07462697 470.34107277 -754 484 C-754.6172998 484.46712402 -755.23459961 484.93424805 -755.87060547 485.41552734 C-768.62730792 495.1075978 -780.87007598 505.46453219 -792 517 C-794.57949359 519.5964083 -797.17615175 522.17172335 -799.796875 524.7265625 C-806.35653349 531.14167679 -812.32389075 537.7767568 -818 545 C-819.2065625 546.46373047 -819.2065625 546.46373047 -820.4375 547.95703125 C-874.92617721 614.53712321 -901.54515436 704.69823259 -911 789 C-911.11859375 790.03205566 -911.2371875 791.06411133 -911.359375 792.12744141 C-916.56988343 839.54151738 -913.62611214 889.12334934 -900.87963867 935.1015625 C-899.009289 942.03470228 -897.23456248 949.19567517 -900.6875 955.875 C-903.59046498 959.79792565 -905.50499209 961.45686903 -910.296875 962.5 C-916.0023449 963.32988653 -919.93392879 963.07937662 -925 960 C-932.16914912 952.83085088 -934.91028078 943.83732963 -937.4375 934.25 C-937.88754395 932.55121704 -937.88754395 932.55121704 -938.34667969 930.81811523 C-946.38713401 899.56803568 -949.3237853 867.48650258 -950.88598633 835.34207153 C-950.96492146 833.72058424 -951.04665105 832.09923148 -951.13061523 830.47799683 C-952.17409259 809.87094654 -952.22081962 789.25947514 -952.24023438 768.63110352 C-952.24458289 764.70262178 -952.25836442 760.77436413 -952.28125 756.84594727 C-952.50715939 717.18375247 -950.59663574 677.66557279 -945.50390625 638.3046875 C-945.38825821 637.40354218 -945.27261017 636.50239685 -945.15345764 635.57394409 C-937.25960046 575.1689733 -923.82020555 515.91630032 -904.69018555 458.08880615 C-904.03656691 456.11066762 -903.38770133 454.131038 -902.74023438 452.15087891 C-892.88531941 422.16274364 -881.17981414 392.68066616 -868 364 C-867.58975586 363.10120117 -867.17951172 362.20240234 -866.75683594 361.27636719 C-851.2944125 327.54796136 -832.28872308 294.94917661 -809 266 C-808.278125 265.09765625 -807.55625 264.1953125 -806.8125 263.265625 C-804.56594207 260.48952127 -802.28586696 257.74379727 -800 255 C-799.20078125 254.01386719 -798.4015625 253.02773438 -797.578125 252.01171875 C-790.97180581 243.97703941 -783.76901889 236.55470184 -776.4375 229.1875 C-775.95480652 228.69963013 -775.47211304 228.21176025 -774.97479248 227.70910645 C-768.33000274 221.0081985 -761.37934287 214.88286959 -754 209 C-752.96065392 208.12497156 -751.92553192 207.24484612 -750.8984375 206.35546875 C-687.30583071 151.72095363 -603.01088683 122.95747765 -343.54595947 81.79701614 C-254.98994709 71.95080766 -166.21626043 61.62904045 -15.81103516 1.33227539 C-10.76190895 -1.06073153 -5.45943521 -0.6328772 0 0 Z " fill="#878787" transform="translate(1185,251)"/>
<path d="M0 0 C2.78182295 1.25196277 5.4900462 2.60063269 8.20043945 4.00048828 C9.21066162 4.50080566 10.22088379 5.00112305 11.26171875 5.51660156 C14.33260424 7.03751709 17.39255665 8.57862467 20.45043945 10.12548828 C62.30737537 31.24135155 108.28025944 45.99931045 154.4152832 54.14501953 C155.1394619 54.27335741 155.86364059 54.40169529 156.6097641 54.5339222 C172.02417677 57.23920643 187.46879339 58.93451557 203.04580688 60.36326981 C206.78266658 60.70964901 210.51782897 61.07350141 214.25317383 61.43579102 C220.50644235 62.04069245 226.76035483 62.63835092 233.01489258 63.22998047 C400.44777289 79.07950132 400.44777289 79.07950132 537.45043945 130.12548828 C538.44527344 130.59728516 539.44010742 131.06908203 540.46508789 131.55517578 C554.15127232 138.09837152 567.33706763 145.50926406 580.45043945 153.12548828 C581.30105957 153.61774902 582.15167969 154.11000977 583.02807617 154.6171875 C608.72861767 169.55395173 633.3047218 186.47564871 656.45043945 205.12548828 C657.84456055 206.24503906 657.84456055 206.24503906 659.2668457 207.38720703 C679.0430851 223.42121772 679.0430851 223.42121772 686.89575195 231.56689453 C688.59206671 233.26747138 690.37350243 234.81635528 692.20043945 236.37548828 C699.56317097 242.73746017 706.4251775 249.72612401 712.73168945 257.13330078 C713.93391906 258.52679419 715.16591386 259.89490719 716.41918945 261.24267578 C727.61386358 273.28911859 737.17842414 286.76014126 746.29858398 300.41601562 C747.0667947 301.55611978 747.84915363 302.68681658 748.64526367 303.80761719 C751.45043945 307.80569981 751.45043945 307.80569981 751.45043945 311.12548828 C750.65865295 311.23300415 749.86686646 311.34052002 749.05108643 311.45129395 C649.53719144 324.58366326 649.53719144 324.58366326 553.0078125 351.4152832 C550.31419341 352.16332501 548.23071954 352.38154018 545.45043945 352.12548828 C543.15226413 350.78686039 541.09154922 349.43041106 538.95043945 347.87548828 C484.79268394 310.33739399 421.73699738 300.36008192 358.45043945 288.12548828 C364.59523788 290.98188656 370.74127109 293.83561626 376.88793945 296.68798828 C377.81713196 297.11932068 378.74632446 297.55065308 379.70367432 297.99505615 C391.22606841 303.34195235 402.76721024 308.64170404 414.34872437 313.85919189 C473.95299044 340.73462139 473.95299044 340.73462139 501.32543945 357.62548828 C502.13561523 358.11831299 502.94579102 358.6111377 503.78051758 359.11889648 C504.51463867 359.58513428 505.24875977 360.05137207 506.00512695 360.53173828 C506.64949707 360.93714844 507.29386719 361.34255859 507.95776367 361.76025391 C509.7943089 363.4399989 510.07530267 364.70350743 510.45043945 367.12548828 C509.92836914 367.35623047 509.40629883 367.58697266 508.8684082 367.82470703 C497.97962204 372.64933558 487.17758615 377.57810319 476.58764648 383.03027344 C474.27635659 384.2146973 471.9551998 385.37851839 469.6340332 386.54345703 C444.65709434 399.20953283 421.38888878 414.75874727 399.45043945 432.12548828 C398.51844727 432.86283203 397.58645508 433.60017578 396.6262207 434.35986328 C390.15794212 439.56401324 384.02582468 445.08703957 377.95336914 450.74023438 C376.50101874 452.07886923 375.02682996 453.39369027 373.55200195 454.70751953 C361.46136067 465.51778459 350.50645963 477.40550487 340.45043945 490.12548828 C339.52235717 491.263518 338.59256229 492.40015247 337.66137695 493.53564453 C329.38058946 503.68153513 321.71489451 514.2288057 314.45043945 525.12548828 C279.18457875 522.16841301 245.09894271 502.73465787 216.45043945 483.12548828 C215.77335938 482.66223145 215.0962793 482.19897461 214.39868164 481.72167969 C206.43523981 476.23292488 198.83454549 470.37593488 191.45043945 464.12548828 C190.93046387 463.69042969 190.41048828 463.25537109 189.87475586 462.80712891 C164.43785995 441.52089793 141.94824045 417.75109918 122.04418945 391.23828125 C120.51584031 389.21218849 118.97060682 387.20035379 117.41918945 385.19189453 C100.61291672 363.31837618 86.54097554 339.36831498 73.45043945 315.12548828 C72.9920166 314.28244141 72.53359375 313.43939453 72.0612793 312.57080078 C35.80213424 245.62328964 18.60186531 172.56779861 0.50756836 99.25585938 C-1.31879357 91.85694663 -3.15146167 84.45961421 -4.98706055 77.06298828 C-5.27530701 75.89832031 -5.56355347 74.73365234 -5.86053467 73.53369141 C-8.54660494 62.69871232 -11.24096151 51.87866909 -14.4206543 41.17626953 C-14.63856125 40.44258652 -14.8564682 39.7089035 -15.08097839 38.95298767 C-16.04339204 35.7397534 -17.03273587 32.54029093 -18.06298828 29.34790039 C-20.60025986 21.21354385 -22.65057118 12.56095516 -18.86206055 4.56298828 C-13.37626102 -1.21934095 -7.62216542 -2.61443996 0 0 Z " fill="#5C5C5B" transform="translate(20.549560546875,0.87451171875)"/>
<path d="M0 0 C1.75128818 0.28382946 3.50100003 0.57739529 5.25 0.875 C6.71179688 1.11863281 6.71179688 1.11863281 8.203125 1.3671875 C10.77264117 1.94855848 12.72071056 2.70840265 15 4 C14.67 4.33 14.34 4.66 14 5 C15.32 5.99 16.64 6.98 18 8 C13.66695924 7.35534798 10.13327935 5.81074878 6.1875 3.9375 C5.02605469 3.38964844 3.86460937 2.84179688 2.66796875 2.27734375 C1.78753906 1.85582031 0.90710938 1.43429687 0 1 C0 0.67 0 0.34 0 0 Z " fill="#D7D1CA" transform="translate(365,284)"/>
</svg>
